<svg width="285" height="51" viewBox="0 0 285 51" fill="none" xmlns="http://www.w3.org/2000/svg">
<g filter="url(#filter0_d_2_6)">
<path d="M18.4787 16.348C18.3764 15.3168 17.9375 14.5156 17.1619 13.9446C16.3864 13.3736 15.3338 13.0881 14.0043 13.0881C13.1009 13.0881 12.3381 13.2159 11.7159 13.4716C11.0938 13.7188 10.6165 14.0639 10.2841 14.5071C9.96023 14.9503 9.7983 15.4531 9.7983 16.0156C9.78125 16.4844 9.87926 16.8935 10.0923 17.2429C10.3139 17.5923 10.6165 17.8949 11 18.1506C11.3835 18.3977 11.8267 18.6151 12.3295 18.8026C12.8324 18.9815 13.3693 19.1349 13.9403 19.2628L16.2926 19.8253C17.4347 20.081 18.483 20.4219 19.4375 20.848C20.392 21.2741 21.2188 21.7983 21.9176 22.4205C22.6165 23.0426 23.1577 23.7756 23.5412 24.6193C23.9332 25.4631 24.1335 26.4304 24.142 27.5213C24.1335 29.1236 23.7244 30.5128 22.9148 31.6889C22.1136 32.8565 20.9545 33.7642 19.4375 34.4119C17.929 35.0511 16.1094 35.3707 13.9787 35.3707C11.8651 35.3707 10.0241 35.0469 8.45597 34.3991C6.89631 33.7514 5.67756 32.7926 4.79972 31.5227C3.9304 30.2443 3.47443 28.6634 3.43182 26.7798H8.78835C8.84801 27.6577 9.09943 28.3906 9.54261 28.9787C9.99432 29.5582 10.5952 29.9972 11.3452 30.2955C12.1037 30.5852 12.9602 30.7301 13.9148 30.7301C14.8523 30.7301 15.6662 30.5937 16.3565 30.321C17.0554 30.0483 17.5966 29.669 17.9801 29.1832C18.3636 28.6974 18.5554 28.1392 18.5554 27.5085C18.5554 26.9205 18.3807 26.4261 18.0312 26.0256C17.6903 25.625 17.1875 25.2841 16.5227 25.0028C15.8665 24.7216 15.0611 24.4659 14.1065 24.2358L11.2557 23.5199C9.0483 22.983 7.3054 22.1435 6.02699 21.0014C4.74858 19.8594 4.11364 18.321 4.12216 16.3864C4.11364 14.8011 4.53551 13.4162 5.38778 12.2315C6.24858 11.0469 7.42898 10.1222 8.92898 9.45739C10.429 8.79261 12.1335 8.46023 14.0426 8.46023C15.9858 8.46023 17.6818 8.79261 19.1307 9.45739C20.5881 10.1222 21.7216 11.0469 22.5312 12.2315C23.3409 13.4162 23.7585 14.7884 23.7841 16.348H18.4787ZM36.6353 35.3835C34.6239 35.3835 32.8938 34.9574 31.445 34.1051C30.0046 33.2443 28.8967 32.0511 28.1211 30.5256C27.354 29 26.9705 27.2443 26.9705 25.2585C26.9705 23.2472 27.3583 21.483 28.1339 19.9659C28.918 18.4403 30.0302 17.2514 31.4705 16.3991C32.9109 15.5384 34.6239 15.108 36.6097 15.108C38.3228 15.108 39.8228 15.419 41.1097 16.0412C42.3967 16.6634 43.4151 17.5369 44.1651 18.6619C44.9151 19.7869 45.3285 21.108 45.4052 22.625H40.266C40.1211 21.6449 39.7376 20.8565 39.1154 20.2599C38.5018 19.6548 37.6964 19.3523 36.6992 19.3523C35.8555 19.3523 35.1183 19.5824 34.4876 20.0426C33.8654 20.4943 33.3796 21.1548 33.0302 22.0241C32.6808 22.8935 32.506 23.946 32.506 25.1818C32.506 26.4347 32.6765 27.5 33.0174 28.3778C33.3668 29.2557 33.8569 29.9247 34.4876 30.3849C35.1183 30.8452 35.8555 31.0753 36.6992 31.0753C37.3214 31.0753 37.8796 30.9474 38.3739 30.6918C38.8768 30.4361 39.2901 30.0653 39.614 29.5795C39.9464 29.0852 40.1637 28.4929 40.266 27.8026H45.4052C45.32 29.3026 44.9109 30.6236 44.1779 31.7656C43.4535 32.8991 42.4521 33.7855 41.1737 34.4247C39.8952 35.0639 38.3825 35.3835 36.6353 35.3835ZM57.7642 35.3835C55.7784 35.3835 54.0611 34.9616 52.6122 34.1179C51.1719 33.2656 50.0597 32.081 49.2756 30.5639C48.4915 29.0384 48.0994 27.2699 48.0994 25.2585C48.0994 23.2301 48.4915 21.4574 49.2756 19.9403C50.0597 18.4148 51.1719 17.2301 52.6122 16.3864C54.0611 15.5341 55.7784 15.108 57.7642 15.108C59.75 15.108 61.4631 15.5341 62.9034 16.3864C64.3523 17.2301 65.4688 18.4148 66.2528 19.9403C67.0369 21.4574 67.429 23.2301 67.429 25.2585C67.429 27.2699 67.0369 29.0384 66.2528 30.5639C65.4688 32.081 64.3523 33.2656 62.9034 34.1179C61.4631 34.9616 59.75 35.3835 57.7642 35.3835ZM57.7898 31.1648C58.6932 31.1648 59.4474 30.9091 60.0526 30.3977C60.6577 29.8778 61.1136 29.1705 61.4205 28.2756C61.7358 27.3807 61.8935 26.3622 61.8935 25.2202C61.8935 24.0781 61.7358 23.0597 61.4205 22.1648C61.1136 21.2699 60.6577 20.5625 60.0526 20.0426C59.4474 19.5227 58.6932 19.2628 57.7898 19.2628C56.8778 19.2628 56.1108 19.5227 55.4886 20.0426C54.875 20.5625 54.4105 21.2699 54.0952 22.1648C53.7884 23.0597 53.6349 24.0781 53.6349 25.2202C53.6349 26.3622 53.7884 27.3807 54.0952 28.2756C54.4105 29.1705 54.875 29.8778 55.4886 30.3977C56.1108 30.9091 56.8778 31.1648 57.7898 31.1648ZM70.9702 35V15.3636H76.25V18.7898H76.4545C76.8125 17.571 77.4134 16.6506 78.2571 16.0284C79.1009 15.3977 80.0724 15.0824 81.1719 15.0824C81.4446 15.0824 81.7386 15.0994 82.054 15.1335C82.3693 15.1676 82.6463 15.2145 82.8849 15.2741V20.1065C82.6293 20.0298 82.2756 19.9616 81.8239 19.902C81.3722 19.8423 80.9588 19.8125 80.5838 19.8125C79.7827 19.8125 79.0668 19.9872 78.4361 20.3366C77.8139 20.6776 77.3196 21.1548 76.9531 21.7685C76.5952 22.3821 76.4162 23.0895 76.4162 23.8906V35H70.9702ZM85.5984 35V31.7528L95.212 19.8509V19.7102H85.9308V15.3636H101.77V18.9048L92.7447 30.5128V30.6534H102.103V35H85.5984ZM111.866 35.3707C110.614 35.3707 109.497 35.1534 108.517 34.7188C107.537 34.2756 106.761 33.6236 106.19 32.7628C105.628 31.8935 105.347 30.8111 105.347 29.5156C105.347 28.4247 105.547 27.5085 105.947 26.767C106.348 26.0256 106.893 25.429 107.584 24.9773C108.274 24.5256 109.058 24.1847 109.936 23.9545C110.822 23.7244 111.751 23.5625 112.723 23.4688C113.865 23.3494 114.786 23.2386 115.484 23.1364C116.183 23.0256 116.69 22.8636 117.006 22.6506C117.321 22.4375 117.479 22.1222 117.479 21.7045V21.6278C117.479 20.8182 117.223 20.1918 116.712 19.7486C116.209 19.3054 115.493 19.0838 114.564 19.0838C113.584 19.0838 112.804 19.3011 112.224 19.7358C111.645 20.1619 111.261 20.6989 111.074 21.3466L106.037 20.9375C106.293 19.7443 106.795 18.7131 107.545 17.8438C108.295 16.9659 109.263 16.2926 110.447 15.8239C111.641 15.3466 113.021 15.108 114.589 15.108C115.68 15.108 116.724 15.2358 117.722 15.4915C118.727 15.7472 119.618 16.1435 120.393 16.6804C121.178 17.2173 121.795 17.9077 122.247 18.7514C122.699 19.5866 122.925 20.5881 122.925 21.7557V35H117.76V32.277H117.607C117.291 32.8906 116.869 33.4318 116.341 33.9006C115.812 34.3608 115.178 34.723 114.436 34.9872C113.695 35.2429 112.838 35.3707 111.866 35.3707ZM113.426 31.6122C114.227 31.6122 114.935 31.4545 115.548 31.1392C116.162 30.8153 116.643 30.3807 116.993 29.8352C117.342 29.2898 117.517 28.6719 117.517 27.9815V25.8977C117.347 26.0085 117.112 26.1108 116.814 26.2045C116.524 26.2898 116.196 26.3707 115.83 26.4474C115.463 26.5156 115.097 26.5795 114.73 26.6392C114.364 26.6903 114.031 26.7372 113.733 26.7798C113.094 26.8736 112.536 27.0227 112.058 27.2273C111.581 27.4318 111.21 27.7088 110.946 28.0582C110.682 28.3991 110.55 28.8253 110.55 29.3366C110.55 30.0781 110.818 30.6449 111.355 31.0369C111.901 31.4205 112.591 31.6122 113.426 31.6122ZM137.71 15.3636V19.4545H125.59V15.3636H137.71ZM128.364 35V13.9446C128.364 12.5213 128.641 11.3409 129.195 10.4034C129.758 9.46591 130.525 8.76278 131.496 8.29403C132.468 7.82528 133.572 7.59091 134.808 7.59091C135.643 7.59091 136.406 7.65483 137.096 7.78267C137.795 7.91051 138.315 8.02557 138.656 8.12784L137.684 12.2188C137.471 12.1506 137.207 12.0866 136.891 12.027C136.585 11.9673 136.269 11.9375 135.945 11.9375C135.144 11.9375 134.586 12.125 134.271 12.5C133.955 12.8665 133.798 13.3821 133.798 14.0469V35H128.364ZM145.933 35.3707C144.68 35.3707 143.564 35.1534 142.583 34.7188C141.603 34.2756 140.828 33.6236 140.257 32.7628C139.694 31.8935 139.413 30.8111 139.413 29.5156C139.413 28.4247 139.613 27.5085 140.014 26.767C140.414 26.0256 140.96 25.429 141.65 24.9773C142.341 24.5256 143.125 24.1847 144.002 23.9545C144.889 23.7244 145.818 23.5625 146.789 23.4688C147.931 23.3494 148.852 23.2386 149.551 23.1364C150.25 23.0256 150.757 22.8636 151.072 22.6506C151.387 22.4375 151.545 22.1222 151.545 21.7045V21.6278C151.545 20.8182 151.289 20.1918 150.778 19.7486C150.275 19.3054 149.559 19.0838 148.63 19.0838C147.65 19.0838 146.87 19.3011 146.291 19.7358C145.711 20.1619 145.328 20.6989 145.14 21.3466L140.103 20.9375C140.359 19.7443 140.862 18.7131 141.612 17.8438C142.362 16.9659 143.329 16.2926 144.514 15.8239C145.707 15.3466 147.088 15.108 148.656 15.108C149.747 15.108 150.791 15.2358 151.788 15.4915C152.794 15.7472 153.684 16.1435 154.46 16.6804C155.244 17.2173 155.862 17.9077 156.314 18.7514C156.765 19.5866 156.991 20.5881 156.991 21.7557V35H151.826V32.277H151.673C151.358 32.8906 150.936 33.4318 150.407 33.9006C149.879 34.3608 149.244 34.723 148.502 34.9872C147.761 35.2429 146.904 35.3707 145.933 35.3707ZM147.493 31.6122C148.294 31.6122 149.001 31.4545 149.615 31.1392C150.228 30.8153 150.71 30.3807 151.059 29.8352C151.409 29.2898 151.583 28.6719 151.583 27.9815V25.8977C151.413 26.0085 151.179 26.1108 150.88 26.2045C150.591 26.2898 150.262 26.3707 149.896 26.4474C149.529 26.5156 149.163 26.5795 148.797 26.6392C148.43 26.6903 148.098 26.7372 147.799 26.7798C147.16 26.8736 146.602 27.0227 146.125 27.2273C145.647 27.4318 145.277 27.7088 145.012 28.0582C144.748 28.3991 144.616 28.8253 144.616 29.3366C144.616 30.0781 144.885 30.6449 145.422 31.0369C145.967 31.4205 146.657 31.6122 147.493 31.6122ZM178.82 15.3636L171.955 35H165.819L158.953 15.3636H164.706L168.784 29.4134H168.989L173.054 15.3636H178.82ZM186.679 35.3707C185.426 35.3707 184.31 35.1534 183.33 34.7188C182.349 34.2756 181.574 33.6236 181.003 32.7628C180.44 31.8935 180.159 30.8111 180.159 29.5156C180.159 28.4247 180.359 27.5085 180.76 26.767C181.161 26.0256 181.706 25.429 182.396 24.9773C183.087 24.5256 183.871 24.1847 184.749 23.9545C185.635 23.7244 186.564 23.5625 187.536 23.4688C188.678 23.3494 189.598 23.2386 190.297 23.1364C190.996 23.0256 191.503 22.8636 191.818 22.6506C192.134 22.4375 192.291 22.1222 192.291 21.7045V21.6278C192.291 20.8182 192.036 20.1918 191.524 19.7486C191.021 19.3054 190.305 19.0838 189.376 19.0838C188.396 19.0838 187.616 19.3011 187.037 19.7358C186.457 20.1619 186.074 20.6989 185.886 21.3466L180.849 20.9375C181.105 19.7443 181.608 18.7131 182.358 17.8438C183.108 16.9659 184.075 16.2926 185.26 15.8239C186.453 15.3466 187.834 15.108 189.402 15.108C190.493 15.108 191.537 15.2358 192.534 15.4915C193.54 15.7472 194.43 16.1435 195.206 16.6804C195.99 17.2173 196.608 17.9077 197.06 18.7514C197.511 19.5866 197.737 20.5881 197.737 21.7557V35H192.572V32.277H192.419C192.104 32.8906 191.682 33.4318 191.153 33.9006C190.625 34.3608 189.99 34.723 189.249 34.9872C188.507 35.2429 187.651 35.3707 186.679 35.3707ZM188.239 31.6122C189.04 31.6122 189.747 31.4545 190.361 31.1392C190.974 30.8153 191.456 30.3807 191.805 29.8352C192.155 29.2898 192.33 28.6719 192.33 27.9815V25.8977C192.159 26.0085 191.925 26.1108 191.626 26.2045C191.337 26.2898 191.009 26.3707 190.642 26.4474C190.276 26.5156 189.909 26.5795 189.543 26.6392C189.176 26.6903 188.844 26.7372 188.545 26.7798C187.906 26.8736 187.348 27.0227 186.871 27.2273C186.393 27.4318 186.023 27.7088 185.759 28.0582C185.494 28.3991 185.362 28.8253 185.362 29.3366C185.362 30.0781 185.631 30.6449 186.168 31.0369C186.713 31.4205 187.403 31.6122 188.239 31.6122ZM209.096 0.380681V43.4375H203.931V0.380681H209.096Z" fill="#112B42" fill-opacity="0.8"/>
<path d="M237.811 21.9043C237.811 24.7988 237.254 27.2188 236.141 29.1641C235.039 31.0977 233.439 32.5566 231.342 33.541C229.244 34.5137 226.719 35 223.766 35H216.488V9.30078H224.557C227.252 9.30078 229.59 9.78125 231.57 10.7422C233.551 11.6914 235.086 13.1035 236.176 14.9785C237.266 16.8418 237.811 19.1504 237.811 21.9043ZM232.15 22.0449C232.15 20.1465 231.869 18.5879 231.307 17.3691C230.756 16.1387 229.936 15.2305 228.846 14.6445C227.768 14.0586 226.432 13.7656 224.838 13.7656H221.938V30.5H224.275C226.936 30.5 228.91 29.791 230.199 28.373C231.5 26.9551 232.15 24.8457 232.15 22.0449ZM250.818 14.9785C252.635 14.9785 254.199 15.3301 255.512 16.0332C256.824 16.7246 257.838 17.7324 258.553 19.0566C259.268 20.3809 259.625 21.998 259.625 23.9082V26.5098H246.951C247.01 28.0215 247.461 29.2109 248.305 30.0781C249.16 30.9336 250.344 31.3613 251.855 31.3613C253.109 31.3613 254.258 31.2324 255.301 30.9746C256.344 30.7168 257.416 30.3301 258.518 29.8145V33.9629C257.545 34.4434 256.525 34.7949 255.459 35.0176C254.404 35.2402 253.121 35.3516 251.609 35.3516C249.641 35.3516 247.895 34.9883 246.371 34.2617C244.859 33.5352 243.67 32.4277 242.803 30.9395C241.947 29.4512 241.52 27.5762 241.52 25.3145C241.52 23.0176 241.906 21.1074 242.68 19.584C243.465 18.0488 244.555 16.9004 245.949 16.1387C247.344 15.3652 248.967 14.9785 250.818 14.9785ZM250.854 18.793C249.811 18.793 248.943 19.127 248.252 19.7949C247.572 20.4629 247.18 21.5117 247.074 22.9414H254.598C254.586 22.1445 254.439 21.4355 254.158 20.8145C253.889 20.1934 253.479 19.7012 252.928 19.3379C252.389 18.9746 251.697 18.793 250.854 18.793ZM268.66 35L261.172 15.3477H266.779L270.576 26.5449C270.787 27.2012 270.951 27.8926 271.068 28.6191C271.197 29.3457 271.285 29.9961 271.332 30.5703H271.473C271.508 29.9492 271.59 29.2871 271.719 28.584C271.859 27.8809 272.041 27.2012 272.264 26.5449L276.043 15.3477H281.65L274.162 35H268.66Z" fill="#6C63FF"/>
</g>
<defs>
<filter id="filter0_d_2_6" x="0.431824" y="0.380676" width="284.219" height="50.0568" filterUnits="userSpaceOnUse" color-interpolation-filters="sRGB">
<feFlood flood-opacity="0" result="BackgroundImageFix"/>
<feColorMatrix in="SourceAlpha" type="matrix" values="0 0 0 0 0 0 0 0 0 0 0 0 0 0 0 0 0 0 127 0" result="hardAlpha"/>
<feOffset dy="4"/>
<feGaussianBlur stdDeviation="1.5"/>
<feComposite in2="hardAlpha" operator="out"/>
<feColorMatrix type="matrix" values="0 0 0 0 0 0 0 0 0 0 0 0 0 0 0 0 0 0 0.2 0"/>
<feBlend mode="normal" in2="BackgroundImageFix" result="effect1_dropShadow_2_6"/>
<feBlend mode="normal" in="SourceGraphic" in2="effect1_dropShadow_2_6" result="shape"/>
</filter>
</defs>
</svg>
